<svg xmlns="http://www.w3.org/2000/svg" xmlns:xlink="http://www.w3.org/1999/xlink" width="1024" zoomAndPan="magnify" viewBox="0 0 768 767.999994" height="1024" preserveAspectRatio="xMidYMid meet" version="1.0"><defs><clipPath id="09c36c7e72"><path d="M 89.074219 365.585938 L 150.449219 365.585938 L 150.449219 427.839844 L 89.074219 427.839844 Z M 89.074219 365.585938 " clip-rule="nonzero"/></clipPath><clipPath id="6dcdc63ea4"><path d="M 120.519531 365.773438 C 136.054688 365.773438 147.066406 374.054688 150.273438 388.351562 L 130.070312 388.351562 C 128.527344 384.160156 125.394531 381.480469 120.191406 381.480469 C 113.421875 381.480469 108.75 386.632812 108.75 396.636719 C 108.75 406.640625 113.421875 411.792969 120.191406 411.792969 C 125.421875 411.792969 128.402344 409.316406 130.070312 404.921875 L 150.273438 404.921875 C 147.042969 418.789062 136.054688 427.5 120.519531 427.5 C 102.308594 427.476562 89.429688 415.65625 89.429688 396.636719 C 89.429688 377.617188 102.308594 365.773438 120.519531 365.773438 Z M 120.519531 365.773438 " clip-rule="nonzero"/></clipPath><clipPath id="41cf6fab6d"><path d="M 159.65625 366.464844 L 221.90625 366.464844 L 221.90625 427.398438 L 159.65625 427.398438 Z M 159.65625 366.464844 " clip-rule="nonzero"/></clipPath><clipPath id="23bfb48a89"><path d="M 221.578125 426.617188 L 202.582031 426.617188 L 202.582031 418.460938 C 198.796875 423.613281 192.152344 427.273438 183.816406 427.273438 C 169.496094 427.273438 159.824219 417.703125 159.824219 401.6875 L 159.824219 366.628906 L 178.714844 366.628906 L 178.714844 399.214844 C 178.714844 407.394531 183.488281 411.890625 190.585938 411.890625 C 197.683594 411.890625 202.582031 407.371094 202.582031 399.214844 L 202.582031 366.628906 L 221.578125 366.628906 Z M 221.578125 426.617188 " clip-rule="nonzero"/></clipPath><clipPath id="2582a050dc"><path d="M 235.058594 366 L 274 366 L 274 426.960938 L 235.058594 426.960938 Z M 235.058594 366 " clip-rule="nonzero"/></clipPath><clipPath id="aafc2b35f1"><path d="M 254.210938 426.617188 L 235.242188 426.617188 L 235.242188 366.628906 L 254.234375 366.628906 L 254.234375 376.632812 C 258.554688 370.292969 265.347656 366 273.660156 366 L 273.660156 385.449219 L 268.429688 385.449219 C 259.4375 385.449219 254.210938 388.453125 254.210938 398.785156 Z M 254.210938 426.617188 " clip-rule="nonzero"/></clipPath><clipPath id="5e4f6ae0cd"><path d="M 278.898438 365.585938 L 344.65625 365.585938 L 344.65625 427.839844 L 278.898438 427.839844 Z M 278.898438 365.585938 " clip-rule="nonzero"/></clipPath><clipPath id="7c3693406b"><path d="M 306.292969 365.773438 C 315.511719 365.773438 322.054688 369.863281 325.386719 375.117188 L 325.386719 366.628906 L 344.382812 366.628906 L 344.382812 426.617188 L 325.386719 426.617188 L 325.386719 418.132812 C 321.953125 423.382812 315.386719 427.476562 306.164062 427.476562 C 291.0625 427.476562 278.964844 415.429688 278.964844 396.511719 C 278.964844 377.59375 291.085938 365.773438 306.292969 365.773438 Z M 311.847656 381.785156 C 304.75 381.785156 298.3125 386.9375 298.3125 396.511719 C 298.3125 406.082031 304.75 411.464844 311.847656 411.464844 C 318.945312 411.464844 325.386719 406.210938 325.386719 396.636719 C 325.386719 387.0625 319.046875 381.808594 311.847656 381.808594 Z M 311.847656 381.785156 " clip-rule="nonzero"/></clipPath><clipPath id="11225ad01a"><path d="M 354.300781 347 L 420 347 L 420 427.839844 L 354.300781 427.839844 Z M 354.300781 347 " clip-rule="nonzero"/></clipPath><clipPath id="33a68e64b5"><path d="M 381.6875 365.773438 C 389.894531 365.773438 397.019531 369.433594 400.78125 374.914062 L 400.78125 347.082031 L 419.777344 347.082031 L 419.777344 426.644531 L 400.78125 426.644531 L 400.78125 418.03125 C 397.347656 423.511719 390.78125 427.476562 381.6875 427.476562 C 366.480469 427.476562 354.382812 415.429688 354.382812 396.511719 C 354.382812 377.59375 366.480469 365.773438 381.6875 365.773438 Z M 387.242188 381.785156 C 380.144531 381.785156 373.707031 386.9375 373.707031 396.511719 C 373.707031 406.082031 380.144531 411.464844 387.242188 411.464844 C 394.339844 411.464844 400.78125 406.210938 400.78125 396.636719 C 400.78125 387.0625 394.441406 381.808594 387.242188 381.808594 Z M 387.242188 381.785156 " clip-rule="nonzero"/></clipPath><clipPath id="a1e57feb48"><path d="M 429.703125 365.585938 L 494.585938 365.585938 L 494.585938 427.839844 L 429.703125 427.839844 Z M 429.703125 365.585938 " clip-rule="nonzero"/></clipPath><clipPath id="752901fd82"><path d="M 461.753906 427.476562 C 443.542969 427.476562 429.777344 415.65625 429.777344 396.613281 C 429.777344 377.566406 443.871094 365.773438 461.980469 365.773438 C 480.089844 365.773438 494.183594 377.59375 494.183594 396.636719 C 494.183594 415.679688 479.964844 427.5 461.753906 427.5 Z M 461.753906 411.5625 C 468.523438 411.5625 474.863281 406.714844 474.863281 396.613281 C 474.863281 386.507812 468.648438 381.660156 461.980469 381.660156 C 455.3125 381.660156 449.101562 386.382812 449.101562 396.613281 C 449.101562 406.839844 454.882812 411.5625 461.753906 411.5625 Z M 461.753906 411.5625 " clip-rule="nonzero"/></clipPath><clipPath id="7fc88e08fc"><path d="M 504.230469 347 L 569.988281 347 L 569.988281 427.839844 L 504.230469 427.839844 Z M 504.230469 347 " clip-rule="nonzero"/></clipPath><clipPath id="c2be6dcbe2"><path d="M 542.375 365.773438 C 557.707031 365.773438 569.679688 377.59375 569.679688 396.511719 C 569.679688 415.429688 557.582031 427.476562 542.375 427.476562 C 533.285156 427.476562 526.71875 423.511719 523.28125 418.230469 L 523.28125 426.617188 L 504.289062 426.617188 L 504.289062 347.082031 L 523.28125 347.082031 L 523.28125 375.140625 C 526.71875 369.761719 533.511719 365.796875 542.375 365.796875 Z M 536.71875 381.785156 C 529.621094 381.785156 523.179688 387.039062 523.179688 396.613281 C 523.179688 406.183594 529.621094 411.4375 536.71875 411.4375 C 543.816406 411.4375 550.382812 406.058594 550.382812 396.484375 C 550.382812 386.914062 543.941406 381.761719 536.71875 381.761719 Z M 536.71875 381.785156 " clip-rule="nonzero"/></clipPath><clipPath id="24636e34c8"><path d="M 577.878906 340.160156 L 600.675781 340.160156 L 600.675781 426.960938 L 577.878906 426.960938 Z M 577.878906 340.160156 " clip-rule="nonzero"/></clipPath><clipPath id="09837ea301"><path d="M 577.914062 350.515625 C 577.914062 344.933594 582.460938 340.515625 589.253906 340.515625 C 596.050781 340.515625 600.46875 344.933594 600.46875 350.515625 C 600.46875 356.097656 595.921875 360.417969 589.253906 360.417969 C 582.585938 360.417969 577.914062 355.996094 577.914062 350.515625 Z M 579.683594 366.65625 L 598.675781 366.65625 L 598.675781 426.617188 L 579.683594 426.617188 Z M 579.683594 366.65625 " clip-rule="nonzero"/></clipPath><clipPath id="f4ecb2197e"><path d="M 608.566406 365.585938 L 674.324219 365.585938 L 674.324219 427.839844 L 608.566406 427.839844 Z M 608.566406 365.585938 " clip-rule="nonzero"/></clipPath><clipPath id="3ab098748f"><path d="M 635.980469 365.773438 C 645.203125 365.773438 651.742188 369.863281 655.078125 375.117188 L 655.078125 366.628906 L 674.070312 366.628906 L 674.070312 426.617188 L 655.078125 426.617188 L 655.078125 418.132812 C 651.640625 423.382812 645.074219 427.476562 635.855469 427.476562 C 620.75 427.476562 608.652344 415.429688 608.652344 396.511719 C 608.652344 377.59375 620.75 365.773438 635.957031 365.773438 Z M 641.539062 381.785156 C 634.441406 381.785156 628 386.9375 628 396.511719 C 628 406.082031 634.441406 411.464844 641.539062 411.464844 C 648.636719 411.464844 655.078125 406.210938 655.078125 396.636719 C 655.078125 387.0625 648.738281 381.808594 641.539062 381.808594 Z M 641.539062 381.785156 " clip-rule="nonzero"/></clipPath></defs><g clip-path="url(#09c36c7e72)"><g clip-path="url(#6dcdc63ea4)"><path fill="#000000" d="M 76.800781 327.886719 L 686.601562 327.886719 L 686.601562 440.113281 L 76.800781 440.113281 Z M 76.800781 327.886719 " fill-opacity="1" fill-rule="nonzero"/></g></g><g clip-path="url(#41cf6fab6d)"><g clip-path="url(#23bfb48a89)"><path fill="#000000" d="M 76.800781 327.886719 L 686.601562 327.886719 L 686.601562 440.113281 L 76.800781 440.113281 Z M 76.800781 327.886719 " fill-opacity="1" fill-rule="nonzero"/></g></g><g clip-path="url(#2582a050dc)"><g clip-path="url(#aafc2b35f1)"><path fill="#000000" d="M 76.800781 327.886719 L 686.601562 327.886719 L 686.601562 440.113281 L 76.800781 440.113281 Z M 76.800781 327.886719 " fill-opacity="1" fill-rule="nonzero"/></g></g><g clip-path="url(#5e4f6ae0cd)"><g clip-path="url(#7c3693406b)"><path fill="#000000" d="M 76.800781 327.886719 L 686.601562 327.886719 L 686.601562 440.113281 L 76.800781 440.113281 Z M 76.800781 327.886719 " fill-opacity="1" fill-rule="nonzero"/></g></g><g clip-path="url(#11225ad01a)"><g clip-path="url(#33a68e64b5)"><path fill="#000000" d="M 76.800781 327.886719 L 686.601562 327.886719 L 686.601562 440.113281 L 76.800781 440.113281 Z M 76.800781 327.886719 " fill-opacity="1" fill-rule="nonzero"/></g></g><g clip-path="url(#a1e57feb48)"><g clip-path="url(#752901fd82)"><path fill="#000000" d="M 76.800781 327.886719 L 686.601562 327.886719 L 686.601562 440.113281 L 76.800781 440.113281 Z M 76.800781 327.886719 " fill-opacity="1" fill-rule="nonzero"/></g></g><g clip-path="url(#7fc88e08fc)"><g clip-path="url(#c2be6dcbe2)"><path fill="#000000" d="M 76.800781 327.886719 L 686.601562 327.886719 L 686.601562 440.113281 L 76.800781 440.113281 Z M 76.800781 327.886719 " fill-opacity="1" fill-rule="nonzero"/></g></g><g clip-path="url(#24636e34c8)"><g clip-path="url(#09837ea301)"><path fill="#000000" d="M 76.800781 327.886719 L 686.601562 327.886719 L 686.601562 440.113281 L 76.800781 440.113281 Z M 76.800781 327.886719 " fill-opacity="1" fill-rule="nonzero"/></g></g><g clip-path="url(#f4ecb2197e)"><g clip-path="url(#3ab098748f)"><path fill="#000000" d="M 76.800781 327.886719 L 686.601562 327.886719 L 686.601562 440.113281 L 76.800781 440.113281 Z M 76.800781 327.886719 " fill-opacity="1" fill-rule="nonzero"/></g></g></svg>